<?xml version="1.0" standalone="no"?>
<!DOCTYPE svg PUBLIC "-//W3C//DTD SVG 20010904//EN"
 "http://www.w3.org/TR/2001/REC-SVG-20010904/DTD/svg10.dtd">
<svg version="1.0" xmlns="http://www.w3.org/2000/svg"
 width="700.000000pt" height="700.000000pt" viewBox="0 0 700.000000 700.000000"
 preserveAspectRatio="xMidYMid meet">
<metadata>
Created by potrace 1.14, written by Peter Selinger 2001-2017
</metadata>
<g transform="translate(0.000000,700.000000) scale(0.100000,-0.100000)"
fill="#000000" stroke="none">
<path d="M560 6989 c0 -4 12 -15 27 -24 15 -10 113 -104 218 -209 188 -186
331 -349 451 -511 32 -44 61 -82 64 -85 11 -10 128 -186 170 -255 200 -327
366 -679 470 -995 67 -204 143 -493 156 -590 3 -25 8 -48 10 -51 4 -7 35 -199
39 -244 1 -16 5 -50 8 -75 10 -78 18 -153 23 -210 3 -30 7 -881 9 -1890 2
-1009 4 -1838 4 -1843 1 -4 232 -6 514 -5 l512 3 -1 1890 c0 1857 -3 2081 -29
2283 -3 23 -8 63 -11 90 -3 26 -12 85 -20 132 -8 47 -17 101 -20 120 -3 19 -7
43 -10 52 -3 10 -7 30 -10 45 -10 62 -79 325 -111 428 -215 695 -573 1307
-1081 1853 l-96 103 -643 -2 c-354 -2 -643 -6 -643 -10z"/>
<path d="M5059 6898 c-166 -178 -225 -249 -377 -453 -313 -418 -557 -910 -725
-1460 -38 -123 -110 -435 -122 -525 -3 -19 -7 -45 -9 -57 -3 -11 -7 -43 -11
-70 -4 -26 -8 -59 -11 -72 -2 -14 -6 -54 -10 -90 -3 -36 -8 -73 -9 -83 -15
-76 -19 -521 -19 -2183 l-1 -1900 515 -3 515 -2 0 1792 c1 1594 4 1964 20
2073 2 17 9 71 15 120 13 116 18 144 35 235 7 41 16 91 19 110 3 19 26 118 51
220 182 723 519 1372 1015 1951 67 79 387 400 453 455 l48 40 -648 2 -648 2
-96 -102z"/>
</g>
</svg>
